nColumns=19
nRows=99
DataType=double
version=3
OpenSimVersion=4.1
endheader
time	ground_force_calcn_r_vx	ground_force_calcn_r_vy	ground_force_calcn_r_vz	ground_force_calcn_r_px	ground_force_calcn_r_py	ground_force_calcn_r_pz	ground_force_calcn_r_mx	ground_force_calcn_r_my	ground_force_calcn_r_mz	ground_force_calcn_l_vx	ground_force_calcn_l_vy	ground_force_calcn_l_vz	ground_force_calcn_l_px	ground_force_calcn_l_py	ground_force_calcn_l_pz	ground_force_calcn_l_mx	ground_force_calcn_l_my	ground_force_calcn_l_mz
0.94	0	0	0	0	0	0	0	0	0	-45.6048	67.3477	21.6963	-0.1821	0	-0.789299	0.117358	-0.17331	-0.0558325
0.95	-141.221	230.223	-32.9175	-0.145184	0	-0.453197	-0.300479	0.48985	-0.0700393	-211.248	341.666	80.8205	-0.195878	0	-0.793914	0.291695	-0.471779	-0.111598
0.96	-313.663	536.354	-70.288	-0.150085	0	-0.456655	-1.5597	2.66704	-0.34951	-259.206	538.045	96.3302	-0.203975	0	-0.78493	1.25656	-2.60831	-0.466985
0.97	-199.615	554.953	-54.5843	-0.161078	0	-0.462226	-2.03622	5.66094	-0.556801	-101.696	568.757	8.34651	-0.220636	0	-0.769753	0.502902	-2.81258	-0.0412747
0.98	-82.9174	504.882	-4.64239	-0.173128	0	-0.469109	-0.74333	4.52612	-0.0416176	-69.3841	623.307	-42.5631	-0.232423	0	-0.75904	-0.386353	3.47077	-0.237005
0.99	-178.652	567.588	-5.86883	-0.174638	0	-0.47285	-0.197527	0.627557	-0.00648891	-166.887	703.104	-16.5541	-0.235115	0	-0.756829	-1.66869	7.03024	-0.165522
1	-272.179	619.827	-18.9924	-0.177105	0	-0.474176	0.269285	-0.613235	0.0187905	-249.894	714.309	35.9559	-0.234398	0	-0.757383	-2.18725	6.25214	0.314712
1.01	-270.254	646.431	-19.6449	-0.185595	0	-0.477392	-0.0680256	0.162713	-0.00494482	-261.481	671.125	79.8588	-0.233737	0	-0.758168	-1.45075	3.72354	0.443073
1.02	-216.466	719.182	-33.9878	-0.201241	0	-0.480312	-0.073891	0.245494	-0.0116018	-211.166	635.627	94.6107	-0.239453	0	-0.756165	-0.523967	1.57718	0.234758
1.03	-141.476	821.765	-36.1756	-0.219186	0	-0.486836	0.226652	-1.31651	0.0579552	-157.193	649.986	89.8287	-0.251429	0	-0.749925	-0.141987	0.587107	0.0811387
1.04	-106.094	890.239	-11.583	-0.229335	0	-0.495612	0.550287	-4.61746	0.0600784	-136.19	713.556	71.5154	-0.263663	0	-0.740723	-0.202805	1.06258	0.106496
1.05	-114.949	884.479	17.1979	-0.229583	0	-0.502389	0.854749	-6.57692	-0.127882	-128.278	780.866	41.8129	-0.272367	0	-0.731724	-0.311795	1.89798	0.101631
1.06	-130.358	840.648	20.4713	-0.225458	0	-0.504956	0.932991	-6.01663	-0.146516	-111.2	802.334	15.762	-0.276902	0	-0.725408	-0.284432	2.05224	0.0403166
1.07	-127.749	812.258	4.75185	-0.222752	0	-0.504558	0.722638	-4.59469	-0.0268798	-88.7924	771.156	7.99982	-0.277526	0	-0.722447	-0.148289	1.28788	0.0133602
1.08	-115.922	805.705	-6.97521	-0.221333	0	-0.503625	0.511856	-3.55761	0.0307992	-80.3664	728.727	13.9975	-0.274167	0	-0.721923	-0.0259606	0.235399	0.0045216
1.09	-111.405	800.489	-11.2873	-0.218371	0	-0.50275	0.445352	-3.20003	0.0451219	-85.8063	714.645	16.9867	-0.269246	0	-0.721641	0.0165713	-0.138015	-0.00328055
1.1	-114.364	796.012	-15.0054	-0.214351	0	-0.501724	0.442763	-3.08178	0.0580939	-91.6536	721.493	12.7772	-0.265374	0	-0.720723	-0.0583669	0.459461	0.0081368
1.11	-113.119	792.836	-20.4874	-0.211283	0	-0.500604	0.420608	-2.94799	0.0761782	-94.7337	727.742	6.80676	-0.262186	0	-0.719865	-0.208623	1.60264	0.0149899
1.12	-106.661	788.006	-23.7991	-0.209471	0	-0.499807	0.393863	-2.90985	0.0878822	-97.3217	729.296	4.63935	-0.259068	0	-0.719611	-0.340425	2.55103	0.0162282
1.13	-101.307	780.749	-22.5982	-0.207955	0	-0.499594	0.405077	-3.12182	0.0903585	-100.777	731.18	9.65196	-0.255898	0	-0.720087	-0.391185	2.83822	0.037466
1.14	-100.149	774.317	-19.0788	-0.206306	0	-0.499699	0.468875	-3.62519	0.089323	-101.196	741.018	17.5789	-0.253762	0	-0.720705	-0.382993	2.80451	0.0665303
1.15	-100.467	770.066	-14.4325	-0.20488	0	-0.500015	0.554186	-4.24776	0.079611	-94.9737	758.097	21.1899	-0.253457	0	-0.720547	-0.383454	3.0608	0.0855535
1.16	-98.6119	769.944	-9.80722	-0.204048	0	-0.500429	0.604665	-4.72112	0.0601356	-84.2642	777.791	18.2219	-0.2546	0	-0.719464	-0.410418	3.78831	0.0887518
1.17	-91.0205	779.609	-6.68357	-0.204503	0	-0.500993	0.570101	-4.88303	0.0418621	-72.3932	793.881	12.9309	-0.256134	0	-0.718155	-0.427945	4.69294	0.0764396
1.18	-77.1524	799.32	-5.91031	-0.20626	0	-0.50154	0.449828	-4.66034	0.0344594	-65.2245	799.88	10.3245	-0.256752	0	-0.717212	-0.426088	5.22533	0.0674462
1.19	-61.3858	823.202	-6.00417	-0.208328	0	-0.501953	0.312414	-4.18957	0.0305573	-64.8156	800.333	10.0216	-0.256143	0	-0.716637	-0.437497	5.40214	0.0676443
1.2	-45.2301	846.218	-5.22123	-0.209967	0	-0.502343	0.197001	-3.68573	0.0227412	-64.4226	804.831	8.65886	-0.255553	0	-0.716087	-0.443556	5.54134	0.0596172
1.21	-31.6544	865.104	-4.19691	-0.210206	0	-0.502627	0.118179	-3.22979	0.0156688	-59.5715	817.474	5.00523	-0.255223	0	-0.715389	-0.417889	5.73451	0.0351113
1.22	-28.5809	874.007	-3.50758	-0.207886	0	-0.50258	0.0924924	-2.82843	0.0113511	-52.3367	835.601	1.19938	-0.254597	0	-0.714913	-0.367711	5.87083	0.00842666
1.23	-36.4455	870.274	-3.58777	-0.203093	0	-0.50212	0.105306	-2.51459	0.0103666	-46.1735	852.258	-0.46236	-0.253035	0	-0.715024	-0.316761	5.84669	-0.0031719
1.24	-48.1735	857.128	-5.62533	-0.197056	0	-0.501369	0.11689	-2.07976	0.0136495	-44.7466	861.254	-0.54162	-0.249992	0	-0.715621	-0.29993	5.77286	-0.0036304
1.25	-58.0551	841.351	-9.41468	-0.190822	0	-0.500598	0.10471	-1.51748	0.0169805	-47.9466	860.304	-1.10702	-0.245869	0	-0.71643	-0.32291	5.79396	-0.00745557
1.26	-65.0532	826.456	-13.185	-0.185113	0	-0.500009	0.0778258	-0.988722	0.0157737	-53.4032	851.258	-1.19312	-0.241563	0	-0.71747	-0.363026	5.78671	-0.00811062
1.27	-70.4516	811.014	-15.607	-0.180132	0	-0.499655	0.0568818	-0.654803	0.0126009	-57.7884	837.13	1.14677	-0.237565	0	-0.718729	-0.379407	5.49614	0.00752907
1.28	-74.1221	795.405	-15.8414	-0.176035	0	-0.499489	0.0496187	-0.532459	0.0106045	-58.4763	824.278	5.88132	-0.234489	0	-0.720012	-0.346826	4.88884	0.0348824
1.29	-75.5435	780.037	-15.6869	-0.172803	0	-0.499334	0.0419121	-0.43277	0.00870322	-55.2456	815.343	11.4853	-0.232893	0	-0.721124	-0.279214	4.12077	0.0580471
1.3	-76.9063	761.643	-17.269	-0.169898	0	-0.499083	0.00484785	-0.0480108	0.00108856	-49.6564	807.743	15.817	-0.232557	0	-0.721947	-0.210855	3.4299	0.0671636
1.31	-77.9756	740.934	-18.9636	-0.167319	0	-0.498654	-0.0515669	0.489995	-0.012541	-43.0726	799.055	17.8483	-0.233127	0	-0.722456	-0.1558	2.8903	0.0645598
1.32	-77.9722	720.612	-19.1487	-0.165298	0	-0.498149	-0.0985119	0.910438	-0.0241929	-36.7305	788.312	18.6732	-0.234557	0	-0.722789	-0.110874	2.37958	0.0563665
1.33	-77.4037	703.056	-18.6384	-0.163982	0	-0.497791	-0.13259	1.20431	-0.031927	-30.7175	776.033	18.9053	-0.236789	0	-0.722999	-0.0723116	1.82685	0.0445048
1.34	-75.3863	690.042	-20.187	-0.163463	0	-0.497322	-0.167911	1.53696	-0.0449632	-24.3103	765.003	19.0147	-0.239539	0	-0.723341	-0.0389222	1.22481	0.0304436
1.35	-72.0896	681.977	-25.4565	-0.16356	0	-0.496776	-0.222365	2.1036	-0.0785222	-18.176	756.707	19.8951	-0.24221	0	-0.724201	-0.0139786	0.58196	0.0153007
1.36	-68.5931	679.855	-33.2413	-0.163971	0	-0.496208	-0.282128	2.79629	-0.136724	-14.06	749.975	21.8742	-0.244112	0	-0.725519	0.00116885	-0.062348	-0.00181848
1.37	-65.4105	682.712	-40.4839	-0.164384	0	-0.495823	-0.324391	3.38578	-0.200772	-12.4067	742.659	24.7624	-0.24541	0	-0.727102	0.0109017	-0.65257	-0.0217586
1.38	-62.4381	690.878	-45.5994	-0.164671	0	-0.495769	-0.352061	3.89556	-0.257115	-12.2369	735.698	27.8986	-0.246404	0	-0.728754	0.0202079	-1.21492	-0.0460713
1.39	-60.6494	703.557	-49.3244	-0.164357	0	-0.495902	-0.381448	4.42494	-0.31022	-12.5057	733.279	31.2724	-0.246694	0	-0.730387	0.0305808	-1.79313	-0.0764721
1.4	-59.8891	718.786	-52.4165	-0.162703	0	-0.49587	-0.410587	4.92784	-0.359356	-11.0192	739.319	36.3099	-0.245417	0	-0.732285	0.0345483	-2.31797	-0.113842
1.41	-59.4577	736.578	-56.3617	-0.15957	0	-0.495656	-0.42392	5.25164	-0.401846	-8.93681	752.189	43.9534	-0.24041	0	-0.734823	0.0332063	-2.7949	-0.163317
1.42	-60.1155	756.572	-61.3665	-0.155478	0	-0.495378	-0.417883	5.25919	-0.426579	-18.1154	766.307	52.9408	-0.230296	0	-0.738019	0.0714695	-3.02327	-0.208864
1.43	-61.9741	772.918	-62.5684	-0.151163	0	-0.495363	-0.37914	4.72849	-0.382776	-40.6885	774.398	58.9003	-0.216782	0	-0.741226	0.138059	-2.6276	-0.199853
1.44	-66.2372	779.217	-57.6343	-0.146665	0	-0.495765	-0.318599	3.74801	-0.277219	-58.6841	776.695	57.7916	-0.204239	0	-0.743522	0.130927	-1.73285	-0.128936
1.45	-76.5724	776.169	-49.9957	-0.14175	0	-0.496258	-0.266628	2.70265	-0.174087	-68.7651	785.593	53.2159	-0.195675	0	-0.744633	0.0829313	-0.947431	-0.0641788
1.46	-93.6242	766.212	-42.3725	-0.136504	0	-0.496451	-0.220568	1.80511	-0.0998248	-80.3702	796.78	50.5061	-0.189976	0	-0.745305	0.0618866	-0.613535	-0.0388906
1.47	-111.497	747.303	-36.2087	-0.131267	0	-0.496219	-0.179506	1.20313	-0.0582945	-92.9551	793	47.2704	-0.18484	0	-0.74596	0.0761098	-0.649292	-0.0387041
1.48	-124.458	712.252	-30.436	-0.125969	0	-0.495606	-0.142268	0.814178	-0.0347915	-104.938	765.96	41.3812	-0.179073	0	-0.746803	0.10212	-0.745392	-0.04027
1.49	-129.105	655.835	-24.6632	-0.120465	0	-0.494353	-0.0948223	0.481683	-0.018114	-110.361	712.06	33.2178	-0.173057	0	-0.747976	0.136073	-0.877961	-0.0409572
1.5	-115.87	573.434	-20.3192	-0.115221	0	-0.492018	-0.0703	0.347911	-0.012328	-96.3759	622.402	22.4051	-0.167199	0	-0.749724	0.136392	-0.88083	-0.0317079
1.51	-77.1927	455.017	-14.6237	-0.1106	0	-0.488788	-0.069437	0.4093	-0.0131544	-57.4182	492.362	9.64577	-0.161692	0	-0.752614	0.0619247	-0.531006	-0.0104028
1.52	-23.3122	297.304	-3.05011	-0.105986	0	-0.485709	-0.0213226	0.27193	-0.0027898	-0.976824	316.921	-4.83541	-0.156945	0	-0.756178	4.91559e-05	-0.0159481	0.000243328
1.53	15.3656	131.816	7.76033	-0.0997232	0	-0.485093	-0.0153441	-0.131631	-0.00774944	34.26	130.338	-12.6975	-0.148948	0	-0.754826	0.164972	0.627617	-0.0611424
1.54	14.6454	20.2008	6.41986	-0.0616575	0	-0.531379	-0.363461	-0.501332	-0.159324	0	0	0	0	0	0	0	0	0
1.55	0	0	0	0	0	0	0	0	0	0	0	0	0	0	0	0	0	0
1.56	0	0	0	0	0	0	0	0	0	0	0	0	0	0	0	0	0	0
1.57	0	0	0	0	0	0	0	0	0	0	0	0	0	0	0	0	0	0
1.58	0	0	0	0	0	0	0	0	0	0	0	0	0	0	0	0	0	0
1.59	0	0	0	0	0	0	0	0	0	0	0	0	0	0	0	0	0	0
1.6	0	0	0	0	0	0	0	0	0	0	0	0	0	0	0	0	0	0
1.61	0	0	0	0	0	0	0	0	0	0	0	0	0	0	0	0	0	0
1.62	0	0	0	0	0	0	0	0	0	0	0	0	0	0	0	0	0	0
1.63	0	0	0	0	0	0	0	0	0	0	0	0	0	0	0	0	0	0
1.64	0	0	0	0	0	0	0	0	0	0	0	0	0	0	0	0	0	0
1.65	0	0	0	0	0	0	0	0	0	0	0	0	0	0	0	0	0	0
1.66	0	0	0	0	0	0	0	0	0	0	0	0	0	0	0	0	0	0
1.67	0	0	0	0	0	0	0	0	0	0	0	0	0	0	0	0	0	0
1.68	0	0	0	0	0	0	0	0	0	0	0	0	0	0	0	0	0	0
1.69	0	0	0	0	0	0	0	0	0	0	0	0	0	0	0	0	0	0
1.7	0	0	0	0	0	0	0	0	0	0	0	0	0	0	0	0	0	0
1.71	0	0	0	0	0	0	0	0	0	0	0	0	0	0	0	0	0	0
1.72	0	0	0	0	0	0	0	0	0	0	0	0	0	0	0	0	0	0
1.73	0	0	0	0	0	0	0	0	0	0	0	0	0	0	0	0	0	0
1.74	0	0	0	0	0	0	0	0	0	0	0	0	0	0	0	0	0	0
1.75	0	0	0	0	0	0	0	0	0	0	0	0	0	0	0	0	0	0
1.76	0	0	0	0	0	0	0	0	0	0	0	0	0	0	0	0	0	0
1.77	0	0	0	0	0	0	0	0	0	0	0	0	0	0	0	0	0	0
1.78	0	0	0	0	0	0	0	0	0	0	0	0	0	0	0	0	0	0
1.79	0	0	0	0	0	0	0	0	0	0	0	0	0	0	0	0	0	0
1.8	0	0	0	0	0	0	0	0	0	0	0	0	0	0	0	0	0	0
1.81	0	0	0	0	0	0	0	0	0	0	0	0	0	0	0	0	0	0
1.82	0	0	0	0	0	0	0	0	0	0	0	0	0	0	0	0	0	0
1.83	0	0	0	0	0	0	0	0	0	0	0	0	0	0	0	0	0	0
1.84	0	0	0	0	0	0	0	0	0	0	0	0	0	0	0	0	0	0
1.85	0	0	0	0	0	0	0	0	0	0	0	0	0	0	0	0	0	0
1.86	0	0	0	0	0	0	0	0	0	0	0	0	0	0	0	0	0	0
1.87	0	0	0	0	0	0	0	0	0	0	0	0	0	0	0	0	0	0
1.88	0	0	0	0	0	0	0	0	0	0	0	0	0	0	0	0	0	0
1.89	0	0	0	0	0	0	0	0	0	0	0	0	0	0	0	0	0	0
1.9	0	0	0	0	0	0	0	0	0	0	0	0	0	0	0	0	0	0
1.91	0	0	0	0	0	0	0	0	0	0	0	0	0	0	0	0	0	0
1.92	0	0	0	0	0	0	0	0	0	0	0	0	0	0	0	0	0	0
